<?xml version="1.0" encoding="utf-8"?>
<!-- Generator: Adobe Illustrator 24.1.2, SVG Export Plug-In . SVG Version: 6.00 Build 0)  -->
<svg version="1.1" id="Layer_1" xmlns="http://www.w3.org/2000/svg" xmlns:xlink="http://www.w3.org/1999/xlink" x="0px" y="0px"
	 viewBox="0 0 100 100" style="enable-background:new 0 0 100 100;" xml:space="preserve">
<style type="text/css">
	.st0{fill:#FFFFFF;stroke:#000000;stroke-width:3;stroke-miterlimit:10;}
</style>
<g transform="translate(0.000000,387.000000) scale(0.100000,-0.100000)">
	<path d="M710,3746.6c-3-6-1-30,6-53c14-53,5-128-23-182c-16-32-17-38-5-27c46,38,86,176,69,236C748,3750.6,722,3765.6,710,3746.6z"
		/>
	<path d="M882,3458.6c-34-53-86-97-141-118c-62-24-53-28,18-10c92,24,183,98,174,142C927,3502.6,906,3496.6,882,3458.6z"/>
	<path d="M220,3417.6c-84-29-170-110-150-142c11-18,34-10,49,18c23,44,87,99,141,121C321,3438.6,289,3441.6,220,3417.6z"/>
	<path d="M291,3237.6c-30-48-46-104-46-163c0-53,22-91,41-72c9,9,9,25,1,65c-11,59-3,129,23,178C332,3288.6,320,3282.6,291,3237.6z"
		/>
	<path d="M602,3193.6c7-8,39-27,70-43c68-34,186-42,203-15s-10,41-55,29c-51-14-136-4-188,23C605,3201.6,594,3203.6,602,3193.6z"/>
	<path d="M450,3141.6c14-85,100-202,141-194c27,5,29,35,4,43c-39,12-93,69-122,130C445,3177.6,444,3178.6,450,3141.6z"/>
</g>
<path d="M30.3,29.6c-7-5.5-18.4-8.4-20.1-4.9c-0.9,1.9,1,3.4,4.2,3.2c4.9-0.4,13,2,17.8,5.3C37.5,37,36,34.1,30.3,29.6z"/>
<path d="M50.5,30.2c0.2-1-0.3-4.6-1-7.8C48,15.2,41.4,6.2,38.3,6.7s-2.5,3.4,1.1,5.8c4.2,2.8,8.6,9.6,9.7,15.1
	C49.7,30.5,50.2,31.4,50.5,30.2z"/>
<circle class="st0" cx="50" cy="50" r="15"/>
</svg>
