<?xml version="1.0" encoding="utf-8"?>
<!-- Generator: Adobe Illustrator 24.1.2, SVG Export Plug-In . SVG Version: 6.00 Build 0)  -->
<svg version="1.1" id="Layer_1" xmlns="http://www.w3.org/2000/svg" xmlns:xlink="http://www.w3.org/1999/xlink" x="0px" y="0px"
	 viewBox="0 0 150 200" style="enable-background:new 0 0 150 200;" xml:space="preserve">
<g fill='gray' opacity='0.5'>
	<path d="M109.5,109.3c-7.3,1.4-19.9,5.5-25.9,8.5c-1.8,0.9,0.2,0.9,22.9,1c13.6,0,25-0.2,25.4-0.5
		c0.9-0.7-0.3-4.6-1.9-6.4C127,108.5,119,107.5,109.5,109.3z"/>
	<path d="M57,182.2l2.3-2.1c0.3-0.3,0.4-0.5,0.3-0.5l-23.9-0.1l-23.9-0.1c-0.2,0-0.7,0.2-1,0.5l-2.6,2.1l-2.4,2
		c-0.4,0.3-0.6,0.6-0.3,0.6l24.1,0.1l24.1,0.1c0.2,0,0.7-0.3,1.1-0.6L57,182.2z"/>
	<path d="M26.4,194.6c7.3-1.4,19.9-5.5,25.9-8.5c1.8-0.9-0.2-0.9-22.9-1c-13.6,0-25,0.2-25.4,0.5
		c-0.9,0.7,0.3,4.6,1.9,6.4C8.9,195.3,16.9,196.3,26.4,194.6z"/>
	<path  d="M78.9,121.7l-2.3,2.1c-0.3,0.3-0.4,0.5-0.3,0.5l23.9,0.1l23.9,0.1c0.2,0,0.7-0.2,1-0.5l2.6-2.1l2.4-2
		c0.4-0.3,0.6-0.6,0.3-0.6l-24.1-0.1l-24.1-0.1c-0.2,0-0.7,0.3-1.1,0.6L78.9,121.7z"/>
	<path stroke='gray' stroke-width='4' d="M47.5,151.8l-32.2,27.5l19.7,0.2c10.8,0.1,20,0.2,20.6,0.1l1-0.2l32.1-27.4l32.1-27.4l-20.7-0.1l-20.5-0.1
		L47.5,151.8z"/>
	<path d="M48.9,151.8l-31.1,26.6l18.4,0.1c10.1,0.1,18.7,0.1,19.2,0.1l1-0.2l31.1-26.6l31.1-26.5l-19.2-0.1L80,125.2
		L48.9,151.8z"/>
</g>
</svg>
