<?xml version="1.0" encoding="utf-8"?>
<!-- Generator: Adobe Illustrator 24.1.2, SVG Export Plug-In . SVG Version: 6.00 Build 0)  -->
<svg version="1.1" id="Layer_1" xmlns="http://www.w3.org/2000/svg" xmlns:xlink="http://www.w3.org/1999/xlink" x="0px" y="0px"
	 viewBox="0 0 250 600" style="enable-background:new 0 0 250 600;" xml:space="preserve">
<style type="text/css">
	.st0{fill:#FFFFFF;stroke:#4D4D4D;stroke-width:2;stroke-miterlimit:10;}
	.st1{fill:#B3B3B3;stroke:#4D4D4D;stroke-width:2;stroke-miterlimit:10;}
	.st2{opacity:0.84;fill:#74ABD6;}
	.st3{fill:#A8D8F3;stroke:#FFFFFF;stroke-width:3;stroke-miterlimit:10;}
</style>
<g>
	<g>
		<rect x="17.94" y="96.08" class="st0" width="214" height="408"/>
		<g>
			<path class="st1" d="M231.94,74.08h-214v22h0.05c-0.03,0.17-0.05,0.33-0.05,0.5c0,9.11,47.91,16.5,107,16.5s107-7.39,107-16.5
				c0-0.17-0.02-0.33-0.05-0.5h0.05V74.08z"/>
			<ellipse class="st1" cx="124.94" cy="74.08" rx="107" ry="16.5"/>
		</g>
		<g>
			<path class="st1" d="M232.06,504.42h-214v22h0.05c-0.03,0.17-0.05,0.33-0.05,0.5c0,9.11,47.91,16.5,107,16.5s107-7.39,107-16.5
				c0-0.17-0.02-0.33-0.05-0.5h0.05V504.42z"/>
			<ellipse class="st1" cx="125.06" cy="504.42" rx="107" ry="16.5"/>
		</g>
	</g>
	<path class="st2" d="M36.94,316.08v175c0,8.28,39.18,15,87.5,15s87.5-6.72,87.5-15v-175H36.94z"/>
	<ellipse class="st3" cx="124.44" cy="314.33" rx="88" ry="11.75"/>
</g>
</svg>
