<?xml version="1.0" encoding="utf-8"?>
<!-- Generator: Adobe Illustrator 24.1.2, SVG Export Plug-In . SVG Version: 6.00 Build 0)  -->
<svg version="1.1" id="Layer_1" xmlns="http://www.w3.org/2000/svg" xmlns:xlink="http://www.w3.org/1999/xlink" x="0px" y="0px"
	 viewBox="0 0 150 200" style="enable-background:new 0 0 150 200;" xml:space="preserve">
<style type="text/css">
	.st0{fill:#FF567A;stroke:#000000;stroke-width:4;stroke-miterlimit:10;}
	.st1{fill:#5ECDFF;}
</style>
<g>
	<path d="M37.6,11.5c-9.3,2.8-22.1,11.2-26.1,17.4c-1.2,1.8,2.1,1.9,39.4,2c22.3,0,40.6-0.5,40.6-1.1c0-1.5-9.2-9.3-15.4-13.1
		C64.9,9.9,49.9,7.9,37.6,11.5z"/>
	<path d="M91.4,160.1l-0.2-4.3c0-0.6-0.3-1.1-0.6-1.1H51.4H12.2c-0.3,0-0.6,0.5-0.6,1.1l-0.2,4.3l-0.1,4c0,0.7,0.2,1.2,0.6,1.2h39.5
		H91c0.3,0,0.6-0.6,0.6-1.2L91.4,160.1z"/>
	<path d="M65.2,185.5c9.3-2.8,22.1-11.2,26.1-17.4c1.2-1.8-2.1-1.9-39.4-2c-22.3,0-40.6,0.5-40.6,1.1c0,1.5,9.2,9.3,15.4,13.1
		C37.9,187.1,53,189.1,65.2,185.5z"/>
	<path d="M11.5,37l0.2,4.3c0,0.6,0.3,1.1,0.6,1.1h39.2h39.2c0.3,0,0.6-0.5,0.6-1.1l0.2-4.3l0.1-4c0-0.7-0.2-1.2-0.6-1.2H51.4H11.9
		c-0.3,0-0.6,0.6-0.6,1.2L11.5,37z"/>
	<path class="st0" d="M19,98.3v56.1l31.2,0.2c17.2,0.2,31.7,0.2,32.4,0l1.2-0.4v-56v-56H51.4H19V98.3z"/>
	<path class="st1" d="M19.4,98.4v54.2l30.5,0.2c16.8,0.2,31,0.2,31.7,0l1.2-0.4V98.2V44.1H51.2H19.4V98.4z"/>
</g>
</svg>
