
<svg version="1.0" xmlns="http://www.w3.org/2000/svg"
 width="612.000000pt" height="612.000000pt" viewBox="0 0 612.000000 612.000000"
 preserveAspectRatio="xMidYMid meet">

<g transform="translate(0.000000,612.000000) scale(0.100000,-0.100000)"
fill="#000000" stroke="none">
<path fill="#BDCDD6" d="M2855 4434 c-143 -22 -339 -89 -400 -138 -18 -14 32 -15 603 -16 342
0 622 4 622 9 0 12 -141 74 -236 104 -171 54 -402 70 -589 41z"/>
<path fill="#BDCDD6" d="M2420 4215 l0 -45 640 0 640 0 0 45 0 45 -640 0 -640 0 0 -45z"/>
<path fill="#93BFCF" d="M2470 3695 l0 -455 568 -2 c312 -2 577 -2 590 0 l22 3 0 455 0 454
-590 0 -590 0 0 -455z"/>
<path fill="#BDCDD6" d="M2422 3168 l3 -43 635 0 635 0 3 43 3 42 -641 0 -641 0 3 -42z"/>
<path fill="#000" d="M2497 3072 c51 -25 52 -27 48 -61 -7 -47 -125 -1298 -125 -1322 0
-18 22 -19 640 -19 l640 0 0 24 c0 22 -113 1224 -124 1317 -4 35 -2 37 48 62
l51 26 -615 0 -615 0 52 -27z m308 -104 c176 -36 424 -28 598 19 32 9 59 14
62 12 2 -3 -86 -118 -196 -256 l-200 -252 -48 57 c-96 117 -351 442 -351 448
0 3 8 3 18 -1 9 -4 62 -16 117 -27z m19 -316 l186 -234 -192 -241 c-281 -352
-300 -377 -302 -377 -1 0 2 37 6 83 10 100 76 798 83 882 10 100 17 137 25
128 5 -4 92 -113 194 -241z m732 -315 c25 -268 44 -492 42 -498 -2 -7 -405
487 -466 572 -11 16 10 46 175 253 l188 236 8 -38 c4 -20 28 -257 53 -525z
m-257 -282 l231 -290 -235 -3 c-129 -1 -340 -1 -469 0 l-234 3 232 292 c127
161 234 291 238 290 4 -1 110 -132 237 -292z"/>
</g>
</svg>
