<?xml version="1.0" encoding="utf-8"?>
<!-- Generator: Adobe Illustrator 24.1.2, SVG Export Plug-In . SVG Version: 6.00 Build 0)  -->
<svg version="1.0" id="Layer_1" xmlns="http://www.w3.org/2000/svg" xmlns:xlink="http://www.w3.org/1999/xlink" x="0px" y="0px"
	 viewBox="0 0 30 25" style="enable-background:new 0 0 30 25;" xml:space="preserve">
<style type="text/css">
	.st0{fill:#4D4D4D;}
	.st1{fill:#3FA9F5;}
</style>
<path class="st0" d="M16.1,0.8c-0.3,0.1-0.6,0.3-0.8,0.5c-0.3,0.3-0.5,0.3-2.9,0.3c-2.3,0-2.6,0-3.1-0.3C9,1.1,8.5,1,8.3,1H7.8v1.5
	v1.5h0.6c0.3,0,0.8-0.1,1.2-0.3c0.6-0.2,1-0.3,3-0.3h2.3l0.6,0.5C16,4.4,16,4.4,16,5.5v1.1L15.1,7c-0.6,0.2-1.2,0.6-1.8,1.1
	c-0.5,0.4-0.8,0.8-0.8,0.9c0,0.1-1.7,0.1-3.7,0.2c-3.5,0-3.8,0.1-4.4,0.4c-1.5,0.7-1.9,1.5-1.9,3.6v1.4l-1.2,0.9
	C0.1,16.4,0,16.5,0,17v0.6h5.1h5.1V17c0-0.6,0-0.7-1.3-1.5c-1.1-0.7-1.3-0.9-1.3-1.3c0-1.1,0.7-1.4,3-1.4c1.6,0,1.7,0,1.9,0.4
	c0.3,0.6,1.6,1.7,2.5,2.1c2.4,1,5.6,0.2,6.8-1.8l0.4-0.7h1.4H25l1.7,1.3c1.6,1.2,1.7,1.2,2.5,1.2l0.8,0l0.1-4.3l0-4.3h-1l-1,0
	l-1.6,1.3l-1.6,1.3h-1.4c-1.4,0-1.4,0-1.7-0.4C21.2,8,20,7.1,19.1,6.9l-0.9-0.3V5.5c0-1,0-1.1,0.6-1.6l0.6-0.6L22,3.4
	c2.1,0,2.6,0.1,3,0.3c0.2,0.1,0.7,0.3,1,0.3h0.6V2.5V1H26c-0.3,0-0.7,0.1-1,0.3c-0.5,0.3-0.8,0.3-3.1,0.3c-2.4,0-2.6,0-2.9-0.3
	C18.3,0.6,17,0.4,16.1,0.8z"/>
<path class="st1" d="M4.2,18.8c-0.4,0.6-0.9,1.5-1.2,2c-0.4,0.9-0.5,1.1-0.5,1.8c0,0.9,0.2,1.4,1,1.8c0.7,0.4,2.4,0.4,2.9,0
	c1-0.7,1.3-1.6,0.8-2.9c-0.3-0.8-1.5-2.9-2.1-3.5l-0.3-0.3L4.2,18.8z M3.6,21.3"/>
</svg>
