<?xml version="1.0" encoding="utf-8"?>
<!-- Generator: Adobe Illustrator 24.1.2, SVG Export Plug-In . SVG Version: 6.00 Build 0)  -->
<svg version="1.1" id="Layer_1" xmlns="http://www.w3.org/2000/svg" xmlns:xlink="http://www.w3.org/1999/xlink" x="0px" y="0px"
	 viewBox="0 0 150 200" style="enable-background:new 0 0 150 200;" xml:space="preserve">
<style type="text/css">
	.st0{fill:#FF567A;stroke:#000000;stroke-width:4;stroke-miterlimit:10;}
	.st1{fill:#5ECDFF;}
	.st2{fill:#000384;}
</style>
<path d="M22.1,61.7c-6.9,1.9-16.3,7.8-19.3,12C1.9,75,4.4,75,31.9,75.1c16.5,0,30-0.3,30-0.8c0-1-6.8-6.4-11.4-9.1C42.3,60.6,31.2,59.2,22.1,61.7z"/>
<path d="M61.8,164.5l-0.1-3c0-0.4-0.2-0.8-0.4-0.8h-29h-29c-0.2,0-0.4,0.3-0.4,0.8l-0.1,3l-0.1,2.8c0,0.5,0.1,0.8,0.4,0.8h29.2h29.2c0.2,0,0.4-0.4,0.4-0.8L61.8,164.5z"/>
<path d="M42.5,182.1c6.9-1.9,16.3-7.8,19.3-12c0.9-1.2-1.6-1.3-29.1-1.4c-16.5,0-30,0.3-30,0.8c0,1,6.8,6.4,11.4,9.1C22.3,183.2,33.5,184.6,42.5,182.1z"/>
<path d="M2.8,79.3l0.1,3c0,0.4,0.2,0.8,0.4,0.8h29h29c0.2,0,0.4-0.3,0.4-0.8l0.1-3l0.1-2.8c0-0.5-0.1-0.8-0.4-0.8H32.3H3.1c-0.2,0-0.4,0.4-0.4,0.8L2.8,79.3z"/>
<path class="st0" d="M7.4,121.7v38.8l24,0.1c13.2,0.1,24.4,0.1,25,0l1-0.3v-38.8V82.9h-25H7.4V121.7z"/>
<path class="st1" d="M9.1,121.8v37.5l22.4,0.1c12.3,0.1,22.7,0.1,23.3,0l0.9-0.3v-37.5V84.2H32.4H9.1V121.8z"/>
<path d="M103.2,61.7c-6.9,1.9-16.3,7.8-19.3,12C83,75,85.5,75,113,75.1c16.5,0,30-0.3,30-0.8c0-1-6.8-6.4-11.4-9.1C123.4,60.6,112.3,59.2,103.2,61.7z"/>
<path d="M142.9,164.5l-0.1-3c0-0.4-0.2-0.8-0.4-0.8h-29h-29c-0.2,0-0.4,0.3-0.4,0.8l-0.1,3l-0.1,2.8c0,0.5,0.1,0.8,0.4,0.8h29.2h29.2c0.2,0,0.4-0.4,0.4-0.8L142.9,164.5z"/>
<path d="M123.6,182.1c6.9-1.9,16.3-7.8,19.3-12c0.9-1.2-1.6-1.3-29.1-1.4c-16.5,0-30,0.3-30,0.8c0,1,6.8,6.4,11.4,9.1C103.4,183.2,114.6,184.6,123.6,182.1z"/>
<path d="M83.9,79.3l0.1,3c0,0.4,0.2,0.8,0.4,0.8h29h29c0.2,0,0.4-0.3,0.4-0.8l0.1-3l0.1-2.8c0-0.5-0.1-0.8-0.4-0.8h-29.2H84.2c-0.2,0-0.4,0.4-0.4,0.8L83.9,79.3z"/>
<path class="st0" d="M88.5,121.8v38.8l24,0.1c13.2,0.1,24.4,0.1,25,0l1-0.3v-38.8V82.9h-25H88.5V121.8z"/>
<path class="st1" d="M90.1,121.8v37.5l22.4,0.1c12.3,0.1,22.7,0.1,23.3,0l0.9-0.3v-37.5V84.2h-23.3H90.1V121.8z"/>
<rect x="59.1" y="147.2" class="st2" width="27.6" height="6.8"/>
<rect x="68.7" y="154" class="st2" width="7" height="42.6"/>
</svg>
