<?xml version="1.0" encoding="utf-8"?>
<!-- Generator: Adobe Illustrator 24.1.2, SVG Export Plug-In . SVG Version: 6.00 Build 0)  -->
<svg version="1.1" xmlns="http://www.w3.org/2000/svg" xmlns:xlink="http://www.w3.org/1999/xlink" x="0px" y="0px"
	 viewBox="0 0 256 360" style="enable-background:new 0 0 256 360;" xml:space="preserve">
<style type="text/css">
	.st0{fill:#FFFFFF;stroke:#4D4D4D;stroke-width:2;stroke-miterlimit:10;}
	.st1{fill:#B3B3B3;stroke:#4D4D4D;stroke-width:2;stroke-miterlimit:10;}
	.st2{opacity:0.84;fill:#74ABD6;}
	.st3{fill:#A8D8F3;stroke:#FFFFFF;stroke-width:3;stroke-miterlimit:10;}
	.st4{fill:#74ABD6;}
	.st5{fill:none;stroke:#000000;stroke-width:2;stroke-miterlimit:10;}
	.st6{fill:#FFFFFF;stroke:#000000;stroke-width:2;stroke-miterlimit:10;}
	.st7{fill:none;stroke:#000000;stroke-miterlimit:10;}
</style>
<g id="Layer_2">
</g>
<g id="Layer_3">
	<g>
		<g>
			<path class="st4" d="M48,248v58.66C48,317.34,83.82,326,128,326s80-8.66,80-19.34V248H48z"/> <!--Change xxx in 19.34VxxxH48z-->
			<ellipse class="st3" cx="127.25" cy="248" rx="80.25" ry="22.5"/><!--Change cy for elipse on top of water-->
		</g>
		<g>
			<g>
				<path class="st5" d="M225.44,71.5c-1.76-23.33-44.48-42-96.94-42s-95.17,18.67-96.94,42H31.5v231h0.16
					c2.89,22.86,45.14,41,96.84,41s93.95-18.14,96.84-41h0.16v-231H225.44z"/>
			</g>
			<g>
				<path class="st6" d="M171.5,28.5h-85v10h0.05c-0.04,0.16-0.05,0.32-0.05,0.48c0,5.25,18.99,9.5,42.42,9.5s42.42-4.25,42.42-9.5
					c0-0.16-0.02-0.32-0.05-0.48h0.21V28.5z"/>
				<ellipse class="st6" cx="129" cy="29" rx="42.5" ry="9.5"/>
			</g>
			<path class="st7" d="M221,73c0,11.6-41.41,21-92.5,21S36,84.6,36,73"/>
		</g>
	</g>
</g>
</svg>
