<?xml version="1.0" encoding="utf-8"?>
<!-- Generator: Adobe Illustrator 24.1.2, SVG Export Plug-In . SVG Version: 6.00 Build 0)  -->
<svg version="1.1" id="Layer_1" xmlns="http://www.w3.org/2000/svg" xmlns:xlink="http://www.w3.org/1999/xlink" x="0px" y="0px"
	 viewBox="0 0 3000 2000" style="enable-background:new 0 0 3000 2000;" xml:space="preserve">
<g transform="translate(0.000000,2000.000000) scale(0.100000,-0.100000)">
	<path d="M10878,16424c-58-31-58-28-58-564c0-535-1-527,57-566c24-16,52-19,191-22l162-4v-3124c0-2734,2-3143,15-3270
		c78-737,369-1425,846-1999c107-128,336-357,464-464c293-243,663-465,993-596c67-27,122-53,122-58c0-17-85-130-153-203
		c-217-234-493-372-806-404c-118-12-166-30-187-71c-22-43-21-807,1-849c33-65-164-60,2465-60c2196,0,2394,1,2420,16
		c60,36,60,34,60,469c0,349-2,400-16,425c-25,41-61,57-149,65c-304,26-566,143-782,348c-74,70-180,198-221,266l-21,35l92,38
		c665,278,1248,759,1651,1363c335,501,533,1039,608,1650c21,173,18,695-5,865c-96,711-344,1300-787,1867c-103,132-429,461-563,567
		c-537,427-1150,696-1807,790c-339,49-718,49-1065,0c-274-39-563-115-818-215c-53-22-100-39-102-39c-3,0-5,582-5,1294v1294l199,4
		c183,3,202,5,228,24c64,47,63,41,63,562c0,513,0,517-55,560l-28,22h-1491C11097,16439,10901,16437,10878,16424z M14469,11910
		c31-17,82-50,113-73l58-43l77,9c143,16,480,2,643-26c264-47,511-130,748-252c81-43,122-59,122-50c0,59,68,110,136,102
		c84-9,116-63,145-244l12-73l108-95c346-305,630-748,750-1170c12-44,23-81,25-83c1-2,17,5,37,14c91,44,192-39,172-142
		c-3-19-35-77-70-129l-63-93l5-224c6-236-3-362-38-548c-45-236-121-458-237-685c-59-117-66-135-49-135c11,0,37-17,58-39
		c33-33,39-45,39-81c0-91-57-132-221-159l-100-17l-46-54c-86-101-227-241-328-325c-283-234-573-385-963-501c-10-3-9-10,3-33
		c42-82-21-181-115-181c-38,0-106,34-188,94l-63,47l-147-11c-439-33-936,75-1341,291c-51,27-94,49-95,47s-9-20-19-41
		c-13-29-29-43-63-59c-44-19-48-19-90-3c-25,9-52,28-61,41c-21,32-50,140-59,215c-6,52-10,61-43,86c-20,15-92,81-160,148
		c-335,326-552,694-687,1163c-3,11-8,10-26-2c-12-9-42-16-65-16c-62,0-113,47-120,112c-6,53,16,100,92,203c25,33,45,66,45,75
		c0,8-5,76-10,152c-30,420,68,880,275,1287c36,70,65,131,65,135c0,3-9,6-21,6s-36,15-55,34c-30,30-34,40-34,85c0,94,56,131,247,162
		l72,12l70,82c305,354,730,633,1177,770l102,31l-14,24c-32,60-3,148,59,175C14381,11946,14406,11943,14469,11910z"/>
	<path d="M14909,11514c55-62,140-200,197-319c102-211,170-466,194-725c6-69,12-133,13-143c1-13,22-27,62-44c204-85,402-257,516-449
		c24-41,46-73,49-73c3-1,24,27,46,62c156,234,264,486,314,728c24,115,38,418,23,499c-8,43-13,48-108,113c-118,80-402,223-530,266
		c-224,75-415,110-645,118l-165,6L14909,11514z"/>
	<path d="M14477,11504c-420-87-803-288-1127-592l-75-70l40-6c114-18,250-49,330-75c275-90,556-257,758-450l48-46l62,24
		c152,58,225,73,387,78c151,5,243-6,369-43c23-7,24-6,17,42c-12,80-54,242-91,347c-78,219-196,427-338,595c-73,84-228,223-250,221
		C14600,11529,14542,11518,14477,11504z"/>
	<path d="M16516,10875c-46-337-196-680-422-960c-40-49-89-109-110-133l-36-43l31-82c83-222,98-451,41-669c-11-43-20-79-20-82
		c0-2,30,2,68,9c465,89,853,306,1106,617l38,48l-26,129c-84,422-284,804-599,1146l-65,70L16516,10875z"/>
	<path d="M13147,10643c-32-4-43-12-78-59c-208-282-366-688-408-1049c-16-143-22-299-12-314c7-11,17-7,53,21c174,142,477,278,749,337
		c101,22,326,51,394,51h41l38,84c87,194,249,380,424,488l92,56l-47,35c-237,172-589,313-873,347
		C13440,10649,13228,10651,13147,10643z"/>
	<path d="M14754,10096c-475-108-763-580-644-1054c73-287,299-519,595-608c79-24,107-27,230-27c113,0,155,4,220,22
		c311,84,542,321,617,630c29,118,28,294-1,406c-78,295-293,521-586,615C15096,10109,14851,10118,14754,10096z"/>
	<path d="M13810,9603c-14-3-70-16-125-29c-295-73-563-205-784-388c-81-67-231-232-231-254c0-8,11-71,25-141c81-402,291-805,577-1106
		l83-88l16,99c59,361,248,740,506,1016c29,31,53,60,53,64s-12,37-26,73c-95,236-106,501-30,739C13882,9611,13872,9614,13810,9603z"
		/>
	<path d="M17166,9265c-187-145-473-272-736-326c-127-26-300-49-375-49h-61l-38-84c-49-111-119-215-201-304c-72-78-204-182-272-215
		c-24-12-43-24-43-28s44-35,97-70c294-190,578-291,895-319c138-12,318-1,344,21c23,19,135,192,187,289c169,313,274,722,265,1028
		l-3,103L17166,9265z"/>
	<path d="M13903,8712c-188-284-303-568-343-852c-12-86-15-323-5-391c7-46,7-47,129-127c276-183,607-309,936-356
		c139-20,356-31,363-19c3,5-10,29-30,53c-143,182-280,487-334,750c-25,118-49,307-49,381v55l-57,23c-193,78-391,242-504,420
		C13930,8772,13940,8767,13903,8712z"/>
	<path d="M15387,8239c-30-18-158-59-228-74c-176-38-372-27-560,31c-15,4-16-1-4-63c61-318,179-597,350-828c69-94,188-219,260-275
		c53-41,56-42,107-35c29,4,105,20,168,36c386,94,743,288,1034,560l88,83l-108,18c-262,43-513,145-749,301c-88,59-277,208-304,241
		C15426,8252,15412,8254,15387,8239z"/>
</g>
</svg>
