<?xml version="1.0" encoding="utf-8"?>
<!-- Generator: Adobe Illustrator 24.1.2, SVG Export Plug-In . SVG Version: 6.00 Build 0)  -->
<svg version="1.0" id="Layer_1" xmlns="http://www.w3.org/2000/svg" xmlns:xlink="http://www.w3.org/1999/xlink" x="0px" y="0px"
	 viewBox="0 0 50 50" style="enable-background:new 0 0 50 50;" xml:space="preserve">
<style type="text/css">
	.st0{fill:#4D4D4D;}
	.st1{fill:#3FA9F5;}
</style>
<path class="st0" d="M26.8,2c-0.4,0.2-1,0.6-1.2,0.9c-0.4,0.5-0.7,0.5-4.4,0.5c-3.5,0-4-0.1-4.8-0.5c-0.5-0.3-1.2-0.5-1.6-0.5H14
	v2.7v2.7h0.8c0.5,0,1.3-0.2,1.9-0.5c0.9-0.5,1.5-0.5,4.6-0.5h3.6l0.9,1c0.8,0.9,0.9,1.1,0.9,3.1v2l-1.4,0.6c-1,0.4-1.8,1.1-2.7,2.1
	c-0.7,0.8-1.3,1.6-1.3,1.7c0,0.1-2.6,0.3-5.7,0.3c-5.3,0.1-5.8,0.1-6.8,0.7c-2.3,1.3-3,2.8-3,6.7v2.5L4,29.2C2.3,30.7,2.2,31,2.2,32
	v1h7.7h7.7v-1.2c0-1.2-0.1-1.2-1.9-2.7c-1.6-1.3-1.9-1.7-1.9-2.3c0-2,1.1-2.6,4.6-2.6c2.5,0,2.5,0,2.8,0.7c0.5,1.2,2.4,3.1,3.8,3.8
	c3.7,1.9,8.6,0.4,10.4-3.2l0.6-1.2h2.2h2.1l2.5,2.3c2.5,2.3,2.5,2.3,3.8,2.2l1.2-0.1l0.1-8l0.1-8h-1.5l-1.5,0L42.6,15l-2.4,2.4H38
	c-2.2,0-2.2,0-2.6-0.8c-0.7-1.3-2.7-2.9-4-3.5L30,12.8v-2c0-1.9,0.1-2.1,0.9-3l0.9-1l3.9,0.1c3.2,0.1,4,0.2,4.6,0.5
	c0.3,0.3,1,0.5,1.5,0.5h0.8V5.1V2.4h-0.7c-0.4,0-1.1,0.2-1.6,0.5c-0.7,0.5-1.3,0.5-4.8,0.5c-3.7,0-4,0-4.4-0.6
	C30.1,1.7,28.2,1.3,26.8,2z"/>
<path class="st1" d="M8.2,35.7c-0.8,1-1.9,2.6-2.5,3.5c-0.9,1.5-1.1,1.9-1.1,3.2c0,1.6,0.5,2.4,2.1,3.1c1.4,0.6,4.9,0.6,6.1,0
	c2.1-1.2,2.7-2.8,1.7-5c-0.6-1.4-3.2-5-4.3-6L9.7,34L8.2,35.7z M7,39.9"/>
</svg>
