<?xml version="1.0" standalone="no"?>
<!DOCTYPE svg PUBLIC "-//W3C//DTD SVG 20010904//EN"
 "http://www.w3.org/TR/2001/REC-SVG-20010904/DTD/svg10.dtd">
<svg version="1.0" xmlns="http://www.w3.org/2000/svg"
 width="512.000000pt" height="512.000000pt" viewBox="0 0 512.000000 512.000000"
 preserveAspectRatio="xMidYMid meet">

<g transform="translate(0.000000,512.000000) scale(0.100000,-0.100000)"
fill="#000000" stroke="none">
<path d="M2180 4850 c-206 -38 -580 -152 -580 -177 0 -10 45 -13 217 -13 l217
0 56 55 c30 30 93 77 139 105 92 55 90 56 -49 30z"/>
<path d="M1700 3710 l0 -720 735 0 735 0 0 413 c0 226 -3 550 -7 720 l-6 307
-729 0 -728 0 0 -720z"/>
<path d="M1606 2761 c9 -9 230 -103 272 -116 18 -5 22 -12 18 -28 -3 -12 -32
-152 -65 -312 -33 -159 -141 -681 -241 -1160 -99 -478 -179 -878 -178 -889 2
-10 12 -25 24 -33 39 -25 61 8 84 122 11 55 22 110 25 123 l5 22 1010 0 1010
0 5 -22 c3 -13 14 -68 26 -123 23 -114 45 -147 83 -122 12 8 22 23 24 33 1 11
-65 343 -148 739 -83 396 -189 900 -235 1120 -46 220 -89 424 -95 453 -7 30
-8 57 -4 61 5 4 32 16 59 26 80 29 225 97 225 106 0 5 -431 9 -957 9 -578 0
-953 -4 -947 -9z m638 -366 c135 -99 246 -183 246 -187 0 -7 -681 -511 -685
-506 -5 6 180 878 186 875 4 -1 117 -83 253 -182z m186 135 c137 -12 307 -3
465 24 44 8 81 13 83 11 7 -6 -410 -306 -422 -303 -15 4 -425 301 -425 309 -1
3 37 -3 85 -12 47 -10 143 -23 214 -29z m796 -388 c51 -240 90 -438 89 -440
-4 -5 -685 499 -685 507 1 6 490 369 500 370 3 1 46 -196 96 -437z m-340 -242
l319 -235 -323 -3 c-177 -1 -467 -1 -644 0 l-322 3 319 237 c176 130 323 235
326 235 3 -1 149 -108 325 -237z m468 -372 c58 -262 195 -932 192 -935 -6 -6
-886 562 -883 570 2 8 657 435 669 436 4 1 14 -32 22 -71z m-1205 -153 c182
-115 330 -214 328 -219 -4 -14 -902 -596 -905 -587 -2 5 45 233 103 508 58
275 105 503 105 507 0 20 64 -16 369 -209z m1016 206 c-17 -17 -586 -381 -595
-381 -9 0 -578 364 -594 381 -6 5 224 9 594 9 379 0 600 -4 595 -9z m-177
-761 c227 -146 412 -268 412 -272 0 -4 -373 -8 -830 -8 -456 0 -830 4 -830 8
0 8 822 541 831 538 3 0 191 -120 417 -266z"/>
</g>
</svg>
